<svg xmlns="http://www.w3.org/2000/svg" width="24" height="24" viewBox="0 0 48 48">
    <path fill="#FFC107"
        d="M43.611 20.083H42V20H24v8h11.303c-1.652 4.657-6.08 8-11.303 8-6.627 0-12-5.373-12-12s5.373-12 12-12c3.059 0 5.842 1.154 7.957 3.043l5.657-5.657C34.826 6.053 29.706 4 24 4 12.955 4 4 12.955 4 24s8.955 20 20 20 20-8.955 20-20c0-1.341-.138-2.651-.389-3.917z" />
    <path fill="#FF3D00"
        d="M6.306 14.691l6.571 4.814C14.692 16.108 18.994 12 24 12c3.059 0 5.842 1.154 7.957 3.043l5.657-5.657C34.826 6.053 29.706 4 24 4 16.318 4 9.656 8.337 6.306 14.691z" />
    <path fill="#4CAF50"
        d="M24 44c5.166 0 9.86-1.977 13.377-5.197l-6.176-5.238C29.142 35.091 26.695 36 24 36c-5.203 0-9.62-3.326-11.283-7.965l-6.55 5.047C8.48 39.692 15.6 44 24 44z" />
    <path fill="#1976D2"
        d="M43.611 20.083H42V20H24v8h11.303c-.793 2.235-2.27 4.147-4.126 5.565l.003-.002 6.176 5.238C39.188 35.918 44 30.727 44 24c0-1.341-.138-2.651-.389-3.917z" />
</svg>